<svg xmlns="http://www.w3.org/2000/svg" viewBox="0 0 180 180" fill="none">
  <defs>
    <linearGradient id="grad" x1="0%" y1="0%" x2="100%" y2="100%">
      <stop offset="0%" style="stop-color:#8B5CF6"/>
      <stop offset="100%" style="stop-color:#6D28D9"/>
    </linearGradient>
  </defs>
  <rect width="180" height="180" rx="40" fill="url(#grad)"/>
  <path d="M45 126V81C45 78.2386 47.2386 76 50 76H62C64.7614 76 67 78.2386 67 81V126C67 128.761 64.7614 131 62 131H50C47.2386 131 45 128.761 45 126Z" fill="white"/>
  <path d="M79 126V58C79 55.2386 81.2386 53 84 53H96C98.7614 53 101 55.2386 101 58V126C101 128.761 98.7614 131 96 131H84C81.2386 131 79 128.761 79 126Z" fill="white"/>
  <path d="M113 126V36C113 33.2386 115.239 31 118 31H130C132.761 31 135 33.2386 135 36V126C135 128.761 132.761 131 130 131H118C115.239 131 113 128.761 113 126Z" fill="white"/>
</svg>
