<svg xmlns="http://www.w3.org/2000/svg" viewBox="0 0 32 32" fill="none">
  <defs>
    <linearGradient id="grad" x1="0%" y1="0%" x2="100%" y2="100%">
      <stop offset="0%" style="stop-color:#8B5CF6"/>
      <stop offset="100%" style="stop-color:#6D28D9"/>
    </linearGradient>
  </defs>
  <rect width="32" height="32" rx="8" fill="url(#grad)"/>
  <path d="M8 22V14C8 13.4477 8.44772 13 9 13H11C11.5523 13 12 13.4477 12 14V22C12 22.5523 11.5523 23 11 23H9C8.44772 23 8 22.5523 8 22Z" fill="white"/>
  <path d="M14 22V10C14 9.44772 14.4477 9 15 9H17C17.5523 9 18 9.44772 18 10V22C18 22.5523 17.5523 23 17 23H15C14.4477 23 14 22.5523 14 22Z" fill="white"/>
  <path d="M20 22V6C20 5.44772 20.4477 5 21 5H23C23.5523 5 24 5.44772 24 6V22C24 22.5523 23.5523 23 23 23H21C20.4477 23 20 22.5523 20 22Z" fill="white"/>
</svg>


